<?xml version="1.0" standalone="no"?>
<!DOCTYPE svg PUBLIC "-//W3C//DTD SVG 20010904//EN"
 "http://www.w3.org/TR/2001/REC-SVG-20010904/DTD/svg10.dtd">
<svg version="1.0" xmlns="http://www.w3.org/2000/svg"
 width="1093.000000pt" height="1093.000000pt" viewBox="0 0 1093.000000 1093.000000"
 preserveAspectRatio="xMidYMid meet">
<metadata>
Created by potrace 1.14, written by Peter Selinger 2001-2017
</metadata>
<g transform="translate(0.000000,1093.000000) scale(0.100000,-0.100000)"
fill="#000000" stroke="none">
<path d="M6138 10925 c-2 -1 -43 -6 -93 -9 -49 -3 -106 -8 -125 -10 -19 -3
-60 -7 -90 -10 -30 -4 -80 -11 -110 -16 -30 -5 -75 -12 -100 -15 -25 -3 -106
-19 -180 -35 l-134 -30 -1041 0 -1040 0 -51 -30 c-100 -57 -147 -142 -158
-285 -3 -29 23 -123 44 -165 10 -20 37 -53 59 -73 83 -74 -17 -69 1291 -71
1173 -1 1175 -1 1220 -22 102 -48 161 -148 165 -279 2 -61 -2 -93 -18 -133
-24 -64 -85 -135 -141 -165 l-41 -22 -1577 -1 c-1241 -1 -1587 -4 -1623 -14
-82 -23 -166 -119 -189 -214 -14 -59 -8 -151 15 -211 29 -78 106 -156 173
-175 34 -9 151 -13 453 -13 474 0 478 0 554 -78 147 -151 114 -417 -64 -515
l-52 -28 -625 -2 -625 -1 -47 -22 c-97 -46 -158 -146 -166 -268 -8 -126 44
-235 143 -298 l52 -34 319 -3 c291 -3 322 -5 358 -22 217 -108 216 -472 -1
-576 l-48 -23 -860 -2 c-855 -1 -860 -1 -900 -22 -130 -68 -195 -218 -160
-368 21 -93 68 -158 144 -203 l46 -27 540 -5 c603 -6 574 -2 650 -78 45 -45
65 -81 81 -148 35 -153 -29 -310 -152 -370 l-56 -27 -432 -1 c-431 -1 -431 -1
-476 -25 -58 -30 -86 -56 -118 -110 -94 -160 -39 -383 115 -461 47 -25 53 -25
311 -27 241 -3 267 -5 311 -24 184 -79 230 -370 82 -517 -20 -20 -50 -47 -65
-59 l-28 -23 -483 0 c-536 -1 -538 -1 -613 -66 -165 -141 -134 -443 56 -536
l47 -23 1410 -1 c1387 -1 1411 -1 1455 -21 165 -73 225 -298 126 -468 -30 -51
-96 -107 -145 -123 -24 -9 -335 -12 -1116 -12 -1183 0 -1113 3 -1192 -57 -99
-75 -141 -248 -92 -378 26 -71 88 -141 149 -169 44 -20 61 -20 730 -21 l685
-1 53 -29 c82 -45 132 -117 151 -217 30 -166 -58 -328 -202 -369 -17 -5 -154
-9 -306 -10 -258 -1 -279 -2 -320 -21 -58 -28 -108 -81 -139 -148 -37 -79 -38
-202 -1 -280 35 -75 72 -116 133 -147 l51 -27 1005 -1 c1118 -1 1037 4 1119
-70 22 -20 53 -62 68 -93 24 -49 27 -69 28 -147 0 -76 -4 -99 -26 -145 -29
-61 -85 -121 -139 -147 -30 -15 -71 -18 -303 -20 -179 -1 -280 -6 -305 -14
-57 -19 -97 -49 -132 -100 -97 -143 -80 -334 39 -442 81 -73 31 -69 866 -69
l750 0 150 -39 c157 -40 309 -73 385 -83 25 -4 68 -11 95 -16 28 -5 77 -12
110 -16 33 -3 67 -8 76 -9 102 -19 632 -26 839 -11 63 4 117 9 120 11 3 1 32
5 65 9 33 3 69 8 80 10 11 2 43 7 70 10 28 4 68 11 90 16 22 5 60 12 85 15 24
4 52 11 62 16 10 5 18 8 18 6 0 -3 26 2 58 10 31 7 64 15 72 17 210 50 530
168 763 280 214 103 572 320 687 415 30 25 34 28 85 65 40 30 118 95 205 171
71 61 361 354 410 414 25 29 50 59 55 65 35 37 152 186 217 276 500 691 851
1558 1003 2475 9 55 18 111 21 125 2 14 6 45 9 70 3 25 8 59 10 75 l4 30
-1252 -1 c-689 -1 -1255 -2 -1258 -3 -4 0 -14 -34 -24 -74 -97 -405 -284 -800
-516 -1092 -344 -434 -796 -686 -1329 -741 -45 -4 -317 -4 -350 0 -14 2 -48 7
-75 10 -28 4 -61 8 -75 11 -14 3 -38 7 -55 10 -57 9 -243 64 -319 95 -251 99
-477 250 -676 450 -118 119 -143 146 -196 215 -41 53 -154 215 -154 220 0 3
-15 28 -34 57 -28 45 -127 243 -172 343 -37 84 -117 323 -139 415 -24 99 -55
243 -59 270 -3 19 -7 44 -9 55 -4 17 -8 47 -23 165 -2 14 -6 59 -9 100 -4 41
-9 91 -11 110 -4 43 -5 425 0 495 6 84 17 197 26 260 5 33 12 80 15 105 5 37
16 94 40 210 30 144 96 357 157 510 279 691 760 1175 1360 1370 332 108 707
122 1033 39 44 -12 87 -22 95 -24 93 -20 351 -142 484 -230 433 -285 770 -755
966 -1347 l33 -98 1248 0 c1201 0 1249 1 1249 18 0 16 -51 319 -64 382 -3 14
-8 39 -12 55 -11 61 -55 241 -65 273 -6 18 -12 43 -15 57 -11 63 -111 375
-172 540 -192 518 -455 994 -781 1415 -74 95 -77 100 -186 225 -91 104 -301
315 -394 395 -36 30 -69 60 -75 65 -33 30 -131 109 -201 161 -388 292 -882
541 -1323 668 -113 32 -269 73 -307 79 -16 3 -55 10 -85 16 -55 11 -84 17
-130 25 -14 3 -47 8 -75 11 -27 3 -61 8 -75 10 -29 4 -128 15 -185 21 -50 5
-612 13 -617 9z m1324 -773 c182 -90 221 -368 73 -518 -83 -84 -58 -81 -718
-81 -574 0 -578 0 -625 22 -61 29 -108 77 -141 145 -22 47 -26 68 -26 145 0
76 4 99 26 145 33 68 79 116 141 145 46 21 51 21 635 21 l588 -1 47 -23z
m-3403 -1251 c87 -45 149 -145 158 -255 15 -188 -118 -350 -279 -340 -95 6
-172 63 -219 162 -28 57 -32 77 -32 147 -1 66 4 90 27 141 32 71 104 142 162
160 51 16 136 9 183 -15z m-1644 -3740 c109 -51 176 -175 169 -311 -9 -158
-112 -277 -252 -288 -113 -10 -220 69 -260 192 -26 79 -28 130 -7 211 43 165
213 260 350 196z m1501 -2492 c166 -53 240 -303 140 -470 -105 -175 -318 -184
-429 -17 -45 69 -61 131 -55 216 15 199 175 326 344 271z m1515 -1256 c100
-45 162 -148 166 -277 3 -130 -51 -238 -149 -291 l-53 -30 -330 0 c-321 0
-331 1 -371 22 -59 31 -103 79 -133 143 -22 46 -26 69 -26 145 0 79 4 97 28
148 42 85 107 141 182 157 17 3 167 5 335 5 286 -1 308 -2 351 -22z"/>
<path d="M1495 10791 c-71 -23 -130 -75 -165 -147 -26 -54 -32 -76 -35 -148
-5 -130 64 -250 171 -298 40 -17 68 -20 185 -21 130 0 141 2 193 27 93 46 153
143 160 261 9 149 -70 282 -193 323 -36 13 -281 15 -316 3z"/>
<path d="M2365 10777 c-52 -25 -103 -75 -131 -128 -40 -78 -45 -207 -12 -294
16 -43 74 -112 117 -140 47 -31 90 -38 232 -38 141 1 198 21 259 90 58 66 79
130 77 233 -2 72 -6 94 -31 142 -33 66 -79 111 -138 138 -33 15 -68 18 -182
19 -128 1 -145 -1 -191 -22z"/>
<path d="M1172 9548 c-232 -28 -318 -377 -135 -549 71 -67 92 -71 419 -71 159
0 309 3 331 7 51 8 126 60 160 110 85 125 78 295 -17 415 -17 22 -55 51 -85
66 l-54 26 -283 2 c-156 0 -307 -2 -336 -6z"/>
<path d="M203 5797 c-24 -6 -43 -14 -43 -18 0 -5 -6 -9 -14 -9 -21 0 -95 -85
-118 -138 -17 -36 -22 -67 -22 -137 -1 -78 3 -98 27 -147 30 -64 73 -109 132
-141 34 -18 59 -22 170 -24 168 -3 216 10 283 75 100 98 125 271 58 400 -31
60 -105 122 -166 139 -31 9 -267 9 -307 0z"/>
<path d="M471 3293 c-26 -10 -63 -35 -90 -63 -150 -154 -107 -438 79 -523 38
-18 66 -21 185 -21 121 0 146 2 185 20 126 58 196 215 165 369 -17 82 -84 172
-159 213 -44 24 -301 27 -365 5z"/>
<path d="M263 2037 c-60 -33 -77 -47 -111 -98 -111 -164 -53 -406 114 -480 52
-23 215 -32 313 -17 136 21 234 161 226 321 -3 78 -23 135 -66 191 -69 89
-121 107 -301 105 -117 -1 -140 -4 -175 -22z"/>
<path d="M1187 2046 c-20 -7 -53 -26 -73 -41 -39 -30 -94 -109 -94 -135 0 -9
-3 -20 -7 -24 -20 -20 -18 -143 3 -211 22 -67 88 -145 149 -175 38 -18 65 -22
169 -24 161 -2 212 11 277 73 61 58 91 125 97 216 8 128 -48 245 -145 302 -46
27 -54 28 -193 31 -104 1 -156 -2 -183 -12z"/>
<path d="M1546 802 c-51 -13 -62 -19 -110 -61 -166 -148 -115 -461 87 -536 45
-17 99 -18 736 -18 507 0 696 3 723 12 82 27 156 114 182 214 46 177 -58 368
-213 393 -21 3 -334 7 -696 7 -505 2 -671 -1 -709 -11z"/>
</g>
</svg>
