<?xml version="1.0" encoding="UTF-8"?>
<svg class="logo" version="1.1" viewbox="0 0 500 500" xmlns="http://www.w3.org/2000/svg">
<path d="m274.32 51.5c-15.705 0-30.841 1.6428-45.314 4.6777h-85.762c-6.2816 0-11.338 5.0563-11.338 11.338s5.0563 11.338 11.338 11.338h26.111 68.92c6.2816 0 11.34 5.0583 11.34 11.34 0 6.2816-5.0583 11.338-11.34 11.338h-100.29c-0.03998 0.03564-0.0831 0.06784-0.12305 0.10352-0.49553-0.06563-1.0016-0.10352-1.5156-0.10352h-27.781c-6.2816 0-11.338 5.0563-11.338 11.338 0 6.2816 5.0563 11.34 11.338 11.34h7.9082 24.301c6.2816 0 11.34 5.0563 11.34 11.338 0 6.2815-5.0583 11.338-11.34 11.338h-39.982-8.2266c-6.2816 0-11.338 5.0583-11.338 11.34 0 5.2446 3.5259 9.6326 8.3457 10.939-0.055543 0.13048-0.099024 0.26781-0.1543 0.39844h24.502c6.2815 0 11.338 5.0583 11.338 11.34 0 6.2816-5.0564 11.338-11.338 11.338h-32.512-35.52c-6.2816 0-11.34 5.0565-11.34 11.338 0 6.2816 5.0583 11.34 11.34 11.34h30.438 9.5938c6.2816 0 11.338 5.0563 11.338 11.338 0 6.2816-5.0563 11.338-11.338 11.338h-12.129-19.902c-6.2816 0-11.34 5.0583-11.34 11.34 0 6.2816 5.0583 11.338 11.34 11.338h17.795 1.9434c0.002754 0.06051 0.010866 0.11921 0.013672 0.17969 5.3406 0.92366 9.3809 5.5457 9.3809 11.158 0 4.8273-2.9907 8.9229-7.2246 10.564 0.038555 0.25625 0.060182 0.51949 0.09961 0.77539h-4.2129-36.031c-6.2816 0-11.34 5.0563-11.34 11.338 0 6.2816 5.0583 11.338 11.34 11.338h40 5.0898 69.795c6.2816 0 11.34 5.0583 11.34 11.34 0 6.2816-5.0583 11.338-11.34 11.338h-62.148-12.736-13.146c-6.2816 0-11.338 5.0565-11.338 11.338 0 6.2816 5.0563 11.34 11.338 11.34h36.984 16.398c6.2816 0 11.34 5.0563 11.34 11.338 0 6.2816-5.0583 11.34-11.34 11.34h-1.1738-18.65c-6.2816 0-11.338 5.0563-11.338 11.338 0 6.2816 5.0563 11.338 11.338 11.338h39.555 40.918c6.2816 0 11.34 5.0583 11.34 11.34 0 6.2816-5.0583 11.338-11.34 11.338h-10.768-7.7578c-6.2816 0-11.34 5.0563-11.34 11.338 0 6.2816 5.0583 11.34 11.34 11.34h61.809c17.202 4.4222 35.437 6.8106 54.498 6.8106 100.47 0 177.71-67.517 192.29-166.9h-106.41c-10.803 42.131-43.752 69.678-85.883 69.678-53.473 0-92.902-42.671-92.902-101.01 0-58.335 39.429-101.54 92.902-101.54 39.97 0 72.379 25.387 85.342 63.736h105.87c-15.664-95.604-92.364-160.96-191.21-160.96zm-203.99 4.6777c-6.2816 0-11.338 5.0563-11.338 11.338-1e-6 6.2816 5.0563 11.338 11.338 11.338h7.5605c6.2816 0 11.338-5.0563 11.338-11.338s-5.0563-11.338-11.338-11.338h-7.5605zm38.236 0c-6.2816 0-11.338 5.0563-11.338 11.338s5.0563 11.338 11.338 11.338h7.5605c6.2816 0 11.338-5.0563 11.338-11.338s-5.0563-11.338-11.338-11.338h-7.5605zm161.67 22.676h45.355c6.2816 0 11.338 5.0583 11.338 11.34 0 6.2816-5.0563 11.338-11.338 11.338h-45.355c-6.2816 0-11.338-5.0563-11.338-11.338 0-6.2816 5.0563-11.34 11.338-11.34zm-215.02 22.678c-6.2816 0-11.338 5.0563-11.338 11.338 0 6.2816 5.0563 11.34 11.338 11.34h22.678c6.2816 0 11.338-5.0583 11.338-11.34 0-6.2816-5.0563-11.338-11.338-11.338h-22.678zm116.24 22.678c6.2816 0 11.338 5.0563 11.338 11.338 0 6.2815-5.0563 11.338-11.338 11.338-6.2815 0-11.338-5.0564-11.338-11.338 0-6.2816 5.0564-11.338 11.338-11.338zm-155.8 113.38c-6.2816 0-11.34 5.0583-11.34 11.34 0 6.2816 5.0583 11.338 11.34 11.338h7.5586c6.2816 0 11.338-5.0563 11.338-11.338 0-6.2816-5.0563-11.34-11.338-11.34h-7.5586zm86.707 22.678c6.2816 0 11.34 5.0563 11.34 11.338 0 6.2815-5.0583 11.34-11.34 11.34-6.2816 0-11.338-5.0583-11.338-11.34 0-6.2816 5.0563-11.338 11.338-11.338zm-74.531 68.031c-6.2816 0-11.338 5.0563-11.338 11.338 0 6.2816 5.0563 11.34 11.338 11.34h7.5605c6.2816 0 11.338-5.0583 11.338-11.34 0-6.2816-5.0563-11.338-11.338-11.338h-7.5605zm138.74 22.678c6.2816 0 11.338 5.0563 11.338 11.338 0 6.2816-5.0563 11.34-11.338 11.34-6.2816 0-11.338-5.0583-11.338-11.34 0-6.2816 5.0563-11.338 11.338-11.338zm-146.97 22.678c-6.2816 0-11.338 5.0563-11.338 11.338 0 6.2816 5.0563 11.338 11.338 11.338h7.5605c6.2816 0 11.338-5.0563 11.338-11.338 0-6.2816-5.0563-11.338-11.338-11.338h-7.5605zm38.236 0c-6.2816 0-11.338 5.0563-11.338 11.338-1e-6 6.2816 5.0563 11.338 11.338 11.338h7.5605c6.2816 0 11.338-5.0563 11.338-11.338 0-6.2816-5.0563-11.338-11.338-11.338h-7.5605zm149.39 22.676h22.678c6.2816 0 11.338 5.0583 11.338 11.34 0 6.2816-5.0563 11.338-11.338 11.338h-22.678c-6.2816 0-11.338-5.0563-11.338-11.338 0-6.2816 5.0563-11.34 11.338-11.34zm-135.08 22.678c-6.2816 0-11.34 5.0563-11.34 11.338 0 6.2816 5.0583 11.34 11.34 11.34h55.203c6.2816 0 11.338-5.0583 11.338-11.34 0-6.2816-5.0563-11.338-11.338-11.338h-55.203z"/>
</svg>