<?xml version="1.0" encoding="UTF-8" standalone="no"?>
<svg
   class="logo"
   inkscape:version="1.1 (c68e22c387, 2021-05-23)"
   sodipodi:docname="logo.svg"
   viewbox="0 0 500 500"
   version="1.1"
   id="svg15989"
   xmlns:inkscape="http://www.inkscape.org/namespaces/inkscape"
   xmlns:sodipodi="http://sodipodi.sourceforge.net/DTD/sodipodi-0.dtd"
   xmlns="http://www.w3.org/2000/svg"
   xmlns:svg="http://www.w3.org/2000/svg">
  <sodipodi:namedview
     inkscape:zoom="1"
     inkscape:cx="287"
     inkscape:cy="410.5"
     inkscape:window-width="1920"
     inkscape:window-height="1017"
     inkscape:window-x="-8"
     inkscape:window-y="-8"
     inkscape:window-maximized="1"
     id="namedview15981"
     pagecolor="#ffffff"
     bordercolor="#666666"
     borderopacity="1.0"
     inkscape:pageshadow="2"
     inkscape:pageopacity="0.0"
     inkscape:pagecheckerboard="0" />
  <defs
     id="defs15983" />
  <g
     id="g15987">
    <path
       d="M 274.32031 51.5 C 258.61514 51.5 243.47972 53.142768 229.00586 56.177734 L 143.24414 56.177734 C 136.96257 56.177734 131.90625 61.23405 131.90625 67.515625 C 131.90625 73.7972 136.96257 78.853516 143.24414 78.853516 L 169.35547 78.853516 L 238.27539 78.853516 C 244.55697 78.853516 249.61523 83.911785 249.61523 90.193359 C 249.61523 96.474934 244.55697 101.53125 238.27539 101.53125 L 137.98633 101.53125 C 137.94635 101.56689 137.90323 101.59909 137.86328 101.63477 C 137.36775 101.56914 136.86169 101.53125 136.34766 101.53125 L 108.56641 101.53125 C 102.28483 101.53125 97.228516 106.58757 97.228516 112.86914 C 97.228516 119.15072 102.28483 124.20898 108.56641 124.20898 L 116.47461 124.20898 L 140.77539 124.20898 C 147.05697 124.20898 152.11523 129.2653 152.11523 135.54688 C 152.11523 141.82835 147.05697 146.88477 140.77539 146.88477 L 100.79297 146.88477 L 92.566406 146.88477 C 86.284832 146.88477 81.228516 151.94303 81.228516 158.22461 C 81.228516 163.46922 84.754368 167.85726 89.574219 169.16406 C 89.518676 169.29454 89.475195 169.43187 89.419922 169.5625 L 113.92188 169.5625 C 120.20336 169.5625 125.25977 174.62077 125.25977 180.90234 C 125.25977 187.18392 120.20336 192.24023 113.92188 192.24023 L 81.410156 192.24023 L 45.890625 192.24023 C 39.60905 192.24023 34.550781 197.29669 34.550781 203.57812 C 34.550781 209.8597 39.60905 214.91797 45.890625 214.91797 L 76.328125 214.91797 L 85.921875 214.91797 C 92.20345 214.91797 97.259766 219.97428 97.259766 226.25586 C 97.259766 232.53743 92.20345 237.59375 85.921875 237.59375 L 73.792969 237.59375 L 53.890625 237.59375 C 47.60905 237.59375 42.550781 242.65202 42.550781 248.93359 C 42.550781 255.21517 47.60905 260.27148 53.890625 260.27148 L 71.685547 260.27148 L 73.628906 260.27148 C 73.63166 260.33199 73.639772 260.39069 73.642578 260.45117 C 78.983182 261.37483 83.023438 265.99685 83.023438 271.60938 C 83.023438 276.43672 80.032691 280.53232 75.798828 282.17383 C 75.837383 282.43008 75.85901 282.69332 75.898438 282.94922 L 71.685547 282.94922 L 35.654297 282.94922 C 29.372722 282.94922 24.314453 288.00553 24.314453 294.28711 C 24.314453 300.56868 29.372722 305.625 35.654297 305.625 L 75.654297 305.625 L 80.744141 305.625 L 150.53906 305.625 C 156.82064 305.625 161.87891 310.68327 161.87891 316.96484 C 161.87891 323.24642 156.82064 328.30273 150.53906 328.30273 L 88.390625 328.30273 L 75.654297 328.30273 L 62.507812 328.30273 C 56.226252 328.30273 51.169922 333.35919 51.169922 339.64062 C 51.169922 345.9222 56.226252 350.98047 62.507812 350.98047 L 99.492188 350.98047 L 115.89062 350.98047 C 122.1722 350.98047 127.23047 356.03678 127.23047 362.31836 C 127.23047 368.59993 122.1722 373.6582 115.89062 373.6582 L 114.7168 373.6582 L 96.066406 373.6582 C 89.784832 373.6582 84.728516 378.71452 84.728516 384.99609 C 84.728516 391.27767 89.784832 396.33398 96.066406 396.33398 L 135.62109 396.33398 L 176.53906 396.33398 C 182.82064 396.33398 187.87891 401.39225 187.87891 407.67383 C 187.87891 413.9554 182.82064 419.01172 176.53906 419.01172 L 165.77148 419.01172 L 158.01367 419.01172 C 151.7321 419.01172 146.67383 424.06803 146.67383 430.34961 C 146.67383 436.63118 151.7321 441.68945 158.01367 441.68945 L 219.82227 441.68945 C 237.02396 446.1116 255.25952 448.5 274.32031 448.5 C 374.78561 448.5 452.02571 380.98268 466.60938 281.59766 L 360.20312 281.59766 C 349.40054 323.72827 316.45093 351.27539 274.32031 351.27539 C 220.84686 351.27539 181.41797 308.60421 181.41797 250.26953 C 181.41797 191.93484 220.84686 148.72461 274.32031 148.72461 C 314.29038 148.72461 346.69884 174.11127 359.66211 212.46094 L 465.5293 212.46094 C 449.86535 116.85686 373.16521 51.5 274.32031 51.5 z M 70.330078 56.177734 C 64.048503 56.177734 58.992188 61.23405 58.992188 67.515625 C 58.992187 73.7972 64.048503 78.853516 70.330078 78.853516 L 77.890625 78.853516 C 84.1722 78.853516 89.228516 73.7972 89.228516 67.515625 C 89.228516 61.23405 84.1722 56.177734 77.890625 56.177734 L 70.330078 56.177734 z M 108.56641 56.177734 C 102.28483 56.177734 97.228516 61.23405 97.228516 67.515625 C 97.228516 73.7972 102.28483 78.853516 108.56641 78.853516 L 116.12695 78.853516 C 122.40853 78.853516 127.46484 73.7972 127.46484 67.515625 C 127.46484 61.23405 122.40853 56.177734 116.12695 56.177734 L 108.56641 56.177734 z M 270.23633 78.853516 L 315.5918 78.853516 C 321.87337 78.853516 326.92969 83.911785 326.92969 90.193359 C 326.92969 96.474934 321.87337 101.53125 315.5918 101.53125 L 270.23633 101.53125 C 263.95475 101.53125 258.89844 96.474934 258.89844 90.193359 C 258.89844 83.911785 263.95475 78.853516 270.23633 78.853516 z M 55.212891 101.53125 C 48.931316 101.53125 43.875 106.58757 43.875 112.86914 C 43.875 119.15072 48.931316 124.20898 55.212891 124.20898 L 77.890625 124.20898 C 84.1722 124.20898 89.228516 119.15072 89.228516 112.86914 C 89.228516 106.58757 84.1722 101.53125 77.890625 101.53125 L 55.212891 101.53125 z M 171.45312 124.20898 C 177.7347 124.20898 182.79102 129.2653 182.79102 135.54688 C 182.79102 141.82834 177.7347 146.88477 171.45312 146.88477 C 165.17166 146.88477 160.11523 141.82834 160.11523 135.54688 C 160.11523 129.2653 165.17166 124.20898 171.45312 124.20898 z M 15.654297 237.59375 C 9.3727222 237.59375 4.3144531 242.65202 4.3144531 248.93359 C 4.3144531 255.21517 9.3727222 260.27148 15.654297 260.27148 L 23.212891 260.27148 C 29.494465 260.27148 34.550781 255.21517 34.550781 248.93359 C 34.550781 242.65202 29.494465 237.59375 23.212891 237.59375 L 15.654297 237.59375 z M 102.36133 260.27148 C 108.6429 260.27148 113.70117 265.3278 113.70117 271.60938 C 113.70117 277.89089 108.6429 282.94922 102.36133 282.94922 C 96.079741 282.94922 91.023434 277.89089 91.023438 271.60938 C 91.023438 265.3278 96.079741 260.27148 102.36133 260.27148 z M 27.830078 328.30273 C 21.548503 328.30273 16.492188 333.35905 16.492188 339.64062 C 16.492188 345.9222 21.548503 350.98047 27.830078 350.98047 L 35.390625 350.98047 C 41.6722 350.98047 46.728516 345.9222 46.728516 339.64062 C 46.728516 333.35905 41.6722 328.30273 35.390625 328.30273 L 27.830078 328.30273 z M 166.56836 350.98047 C 172.84993 350.98047 177.90625 356.03678 177.90625 362.31836 C 177.90625 368.59993 172.84993 373.6582 166.56836 373.6582 C 160.28678 373.6582 155.23047 368.59993 155.23047 362.31836 C 155.23047 356.03678 160.28678 350.98047 166.56836 350.98047 z M 19.59375 373.6582 C 13.312175 373.6582 8.2558594 378.71452 8.2558594 384.99609 C 8.2558594 391.27767 13.312175 396.33398 19.59375 396.33398 L 27.154297 396.33398 C 33.435872 396.33398 38.492188 391.27767 38.492188 384.99609 C 38.492188 378.71452 33.435872 373.6582 27.154297 373.6582 L 19.59375 373.6582 z M 57.830078 373.6582 C 51.548503 373.6582 46.492188 378.71452 46.492188 384.99609 C 46.492187 391.27767 51.548503 396.33398 57.830078 396.33398 L 65.390625 396.33398 C 71.6722 396.33398 76.728516 391.27767 76.728516 384.99609 C 76.728516 378.71452 71.6722 373.6582 65.390625 373.6582 L 57.830078 373.6582 z M 207.2168 396.33398 L 229.89453 396.33398 C 236.17611 396.33398 241.23242 401.39225 241.23242 407.67383 C 241.23242 413.9554 236.17611 419.01172 229.89453 419.01172 L 207.2168 419.01172 C 200.93522 419.01172 195.87891 413.9554 195.87891 407.67383 C 195.87891 401.39225 200.93522 396.33398 207.2168 396.33398 z M 72.132812 419.01172 C 65.851238 419.01172 60.792969 424.06803 60.792969 430.34961 C 60.792969 436.63118 65.851238 441.68945 72.132812 441.68945 L 127.33594 441.68945 C 133.61751 441.68945 138.67383 436.63118 138.67383 430.34961 C 138.67383 424.06803 133.61751 419.01172 127.33594 419.01172 L 72.132812 419.01172 z "
       id="path15985" />
  </g>
</svg>
