<svg class="logo" version="1.1" viewBox="0 0 500 500" viewbox="0 0 500 500" xmlns="http://www.w3.org/2000/svg">
	<title>Conductry Logo</title>
	<g display="none" fill-rule="evenodd" stroke-linecap="round" stroke-linejoin="round" stroke-width="42.874">
		<path x="0" y="0" width="500" height="500" ry="0" d="m88 0h324a88 88 45 0 1 88 88v324a88 88 135 0 1-88 88h-324a88 88 45 0 1-88-88v-324a88 88 135 0 1 88-88z" fill="#fff" style="paint-order:fill markers stroke"/>
		<path x="0" y="0" width="500" height="500" ry="0" d="m88 0h324a88 88 45 0 1 88 88v324a88 88 135 0 1-88 88h-324a88 88 45 0 1-88-88v-324a88 88 135 0 1 88-88z" fill="#df336c" style="paint-order:fill markers stroke"/>
	</g>
	<g>
		<g transform="matrix(.75709 0 0 .88161 79.609 23.472)" fill="#df336c">
			<path d="m263.92 58.448c-15.705 0-30.841 1.6428-45.314 4.6777h-85.762c-6.2816 0-11.338 5.0563-11.338 11.338s5.0563 11.338 11.338 11.338h95.031c6.2816 0 11.34 5.0583 11.34 11.34 0 6.2816-5.0583 11.338-11.34 11.338h-100.29c-0.04 0.0356-0.0831 0.0678-0.12305 0.10352-0.49553-0.0656-1.0016-0.10352-1.5156-0.10352h-27.781c-6.2816 0-11.338 5.0563-11.338 11.338 0 6.2816 5.0563 11.34 11.338 11.34h32.209c6.2816 0 11.34 5.0563 11.34 11.338 0 6.2815-5.0583 11.338-11.34 11.338h-48.209c-6.2816 0-11.338 5.0583-11.338 11.34 0 5.2446 3.5259 9.6326 8.3457 10.939-0.05554 0.13048-0.09902 0.26781-0.1543 0.39844h24.502c6.2815 0 11.338 5.0583 11.338 11.34 0 6.2816-5.0564 11.338-11.338 11.338h-68.031c-6.2816 0-11.34 5.0565-11.34 11.338 0 6.2816 5.0583 11.34 11.34 11.34h40.031c6.2816 0 11.338 5.0563 11.338 11.338 0 6.2816-5.0563 11.338-11.338 11.338h-32.031c-6.2816 0-11.34 5.0583-11.34 11.34 0 6.2816 5.0583 11.338 11.34 11.338h19.738c0.0028 0.0605 0.01087 0.11921 0.01367 0.17969 5.3406 0.92366 9.3809 5.5457 9.3809 11.158 0 4.8273-2.9907 8.9229-7.2246 10.564 0.03856 0.25625 0.06018 0.51949 0.09961 0.77539h-40.244c-6.2816 0-11.34 5.0563-11.34 11.338 0 6.2816 5.0583 11.338 11.34 11.338h114.88c6.2816 0 11.34 5.0583 11.34 11.34 0 6.2816-5.0583 11.338-11.34 11.338h-88.031c-6.2816 0-11.338 5.0565-11.338 11.338 0 6.2816 5.0563 11.34 11.338 11.34h53.383c6.2816 0 11.34 5.0563 11.34 11.338 0 6.2816-5.0583 11.34-11.34 11.34h-19.824c-6.2816 0-11.338 5.0563-11.338 11.338 0 6.2816 5.0563 11.338 11.338 11.338h80.473c6.2816 0 11.34 5.0583 11.34 11.34 0 6.2816-5.0583 11.338-11.34 11.338h-18.525c-6.2816 0-11.34 5.0563-11.34 11.338 0 6.2816 5.0583 11.34 11.34 11.34h61.809c17.202 4.4222 35.437 6.8106 54.498 6.8106 100.47 0 177.71-67.517 192.29-166.9h-106.41c-10.803 42.131-43.752 69.678-85.883 69.678-53.473 0-92.902-42.671-92.902-101.01 0-58.335 39.429-101.54 92.902-101.54 39.97 0 72.379 25.387 85.342 63.736h105.87c-15.664-95.604-92.364-160.96-191.21-160.96zm-203.99 4.6777c-6.2816 0-11.338 5.0563-11.338 11.338-1e-6 6.2816 5.0563 11.338 11.338 11.338h7.5605c6.2816 0 11.338-5.0563 11.338-11.338s-5.0563-11.338-11.338-11.338zm38.236 0c-6.2816 0-11.338 5.0563-11.338 11.338s5.0563 11.338 11.338 11.338h7.5605c6.2816 0 11.338-5.0563 11.338-11.338s-5.0563-11.338-11.338-11.338zm161.67 22.676h45.355c6.2816 0 11.338 5.0583 11.338 11.34 0 6.2816-5.0563 11.338-11.338 11.338h-45.355c-6.2816 0-11.338-5.0563-11.338-11.338 0-6.2816 5.0563-11.34 11.338-11.34zm-215.02 22.678c-6.2816 0-11.338 5.0563-11.338 11.338 0 6.2816 5.0563 11.34 11.338 11.34h22.678c6.2816 0 11.338-5.0583 11.338-11.34 0-6.2816-5.0563-11.338-11.338-11.338zm116.24 22.678c6.2816 0 11.338 5.0563 11.338 11.338 0 6.2815-5.0563 11.338-11.338 11.338-6.2815 0-11.338-5.0564-11.338-11.338 0-6.2816 5.0564-11.338 11.338-11.338zm-155.8 113.38c-6.2816 0-11.34 5.0583-11.34 11.34 0 6.2816 5.0583 11.338 11.34 11.338h7.5586c6.2816 0 11.338-5.0563 11.338-11.338 0-6.2816-5.0563-11.34-11.338-11.34zm86.707 22.678c6.2816 0 11.34 5.0563 11.34 11.338 0 6.2815-5.0583 11.34-11.34 11.34-6.2816 0-11.338-5.0583-11.338-11.34 0-6.2816 5.0563-11.338 11.338-11.338zm-74.531 68.031c-6.2816 0-11.338 5.0563-11.338 11.338 0 6.2816 5.0563 11.34 11.338 11.34h7.5605c6.2816 0 11.338-5.0583 11.338-11.34 0-6.2816-5.0563-11.338-11.338-11.338zm138.74 22.678c6.2816 0 11.338 5.0563 11.338 11.338 0 6.2816-5.0563 11.34-11.338 11.34-6.2816 0-11.338-5.0583-11.338-11.34 0-6.2816 5.0563-11.338 11.338-11.338zm-146.97 22.678c-6.2816 0-11.338 5.0563-11.338 11.338 0 6.2816 5.0563 11.338 11.338 11.338h7.5605c6.2816 0 11.338-5.0563 11.338-11.338 0-6.2816-5.0563-11.338-11.338-11.338zm38.236 0c-6.2816 0-11.338 5.0563-11.338 11.338-1e-6 6.2816 5.0563 11.338 11.338 11.338h7.5605c6.2816 0 11.338-5.0563 11.338-11.338 0-6.2816-5.0563-11.338-11.338-11.338zm149.39 22.676h22.678c6.2816 0 11.338 5.0583 11.338 11.34 0 6.2816-5.0563 11.338-11.338 11.338h-22.678c-6.2816 0-11.338-5.0563-11.338-11.338 0-6.2816 5.0563-11.34 11.338-11.34zm-135.08 22.678c-6.2816 0-11.34 5.0563-11.34 11.338 0 6.2816 5.0583 11.34 11.34 11.34h55.203c6.2816 0 11.338-5.0583 11.338-11.34 0-6.2816-5.0563-11.338-11.338-11.338z" fill="#df336c"/>
		</g>
	</g>
	<g display="none">
		<g transform="matrix(.75709 0 0 .88161 79.609 23.472)" fill="#fff">
			<path d="m263.92 58.448c-15.705 0-30.841 1.6428-45.314 4.6777h-85.762c-6.2816 0-11.338 5.0563-11.338 11.338s5.0563 11.338 11.338 11.338h95.031c6.2816 0 11.34 5.0583 11.34 11.34 0 6.2816-5.0583 11.338-11.34 11.338h-100.29c-0.04 0.0356-0.0831 0.0678-0.12305 0.10352-0.49553-0.0656-1.0016-0.10352-1.5156-0.10352h-27.781c-6.2816 0-11.338 5.0563-11.338 11.338 0 6.2816 5.0563 11.34 11.338 11.34h32.209c6.2816 0 11.34 5.0563 11.34 11.338 0 6.2815-5.0583 11.338-11.34 11.338h-48.209c-6.2816 0-11.338 5.0583-11.338 11.34 0 5.2446 3.5259 9.6326 8.3457 10.939-0.05554 0.13048-0.09902 0.26781-0.1543 0.39844h24.502c6.2815 0 11.338 5.0583 11.338 11.34 0 6.2816-5.0564 11.338-11.338 11.338h-68.031c-6.2816 0-11.34 5.0565-11.34 11.338 0 6.2816 5.0583 11.34 11.34 11.34h40.031c6.2816 0 11.338 5.0563 11.338 11.338 0 6.2816-5.0563 11.338-11.338 11.338h-32.031c-6.2816 0-11.34 5.0583-11.34 11.34 0 6.2816 5.0583 11.338 11.34 11.338h19.738c0.0028 0.0605 0.01087 0.11921 0.01367 0.17969 5.3406 0.92366 9.3809 5.5457 9.3809 11.158 0 4.8273-2.9907 8.9229-7.2246 10.564 0.03856 0.25625 0.06018 0.51949 0.09961 0.77539h-40.244c-6.2816 0-11.34 5.0563-11.34 11.338 0 6.2816 5.0583 11.338 11.34 11.338h114.88c6.2816 0 11.34 5.0583 11.34 11.34 0 6.2816-5.0583 11.338-11.34 11.338h-88.031c-6.2816 0-11.338 5.0565-11.338 11.338 0 6.2816 5.0563 11.34 11.338 11.34h53.383c6.2816 0 11.34 5.0563 11.34 11.338 0 6.2816-5.0583 11.34-11.34 11.34h-19.824c-6.2816 0-11.338 5.0563-11.338 11.338 0 6.2816 5.0563 11.338 11.338 11.338h80.473c6.2816 0 11.34 5.0583 11.34 11.34 0 6.2816-5.0583 11.338-11.34 11.338h-18.525c-6.2816 0-11.34 5.0563-11.34 11.338 0 6.2816 5.0583 11.34 11.34 11.34h61.809c17.202 4.4222 35.437 6.8106 54.498 6.8106 100.47 0 177.71-67.517 192.29-166.9h-106.41c-10.803 42.131-43.752 69.678-85.883 69.678-53.473 0-92.902-42.671-92.902-101.01 0-58.335 39.429-101.54 92.902-101.54 39.97 0 72.379 25.387 85.342 63.736h105.87c-15.664-95.604-92.364-160.96-191.21-160.96zm-203.99 4.6777c-6.2816 0-11.338 5.0563-11.338 11.338-1e-6 6.2816 5.0563 11.338 11.338 11.338h7.5605c6.2816 0 11.338-5.0563 11.338-11.338s-5.0563-11.338-11.338-11.338zm38.236 0c-6.2816 0-11.338 5.0563-11.338 11.338s5.0563 11.338 11.338 11.338h7.5605c6.2816 0 11.338-5.0563 11.338-11.338s-5.0563-11.338-11.338-11.338zm161.67 22.676h45.355c6.2816 0 11.338 5.0583 11.338 11.34 0 6.2816-5.0563 11.338-11.338 11.338h-45.355c-6.2816 0-11.338-5.0563-11.338-11.338 0-6.2816 5.0563-11.34 11.338-11.34zm-215.02 22.678c-6.2816 0-11.338 5.0563-11.338 11.338 0 6.2816 5.0563 11.34 11.338 11.34h22.678c6.2816 0 11.338-5.0583 11.338-11.34 0-6.2816-5.0563-11.338-11.338-11.338zm116.24 22.678c6.2816 0 11.338 5.0563 11.338 11.338 0 6.2815-5.0563 11.338-11.338 11.338-6.2815 0-11.338-5.0564-11.338-11.338 0-6.2816 5.0564-11.338 11.338-11.338zm-155.8 113.38c-6.2816 0-11.34 5.0583-11.34 11.34 0 6.2816 5.0583 11.338 11.34 11.338h7.5586c6.2816 0 11.338-5.0563 11.338-11.338 0-6.2816-5.0563-11.34-11.338-11.34zm86.707 22.678c6.2816 0 11.34 5.0563 11.34 11.338 0 6.2815-5.0583 11.34-11.34 11.34-6.2816 0-11.338-5.0583-11.338-11.34 0-6.2816 5.0563-11.338 11.338-11.338zm-74.531 68.031c-6.2816 0-11.338 5.0563-11.338 11.338 0 6.2816 5.0563 11.34 11.338 11.34h7.5605c6.2816 0 11.338-5.0583 11.338-11.34 0-6.2816-5.0563-11.338-11.338-11.338zm138.74 22.678c6.2816 0 11.338 5.0563 11.338 11.338 0 6.2816-5.0563 11.34-11.338 11.34-6.2816 0-11.338-5.0583-11.338-11.34 0-6.2816 5.0563-11.338 11.338-11.338zm-146.97 22.678c-6.2816 0-11.338 5.0563-11.338 11.338 0 6.2816 5.0563 11.338 11.338 11.338h7.5605c6.2816 0 11.338-5.0563 11.338-11.338 0-6.2816-5.0563-11.338-11.338-11.338zm38.236 0c-6.2816 0-11.338 5.0563-11.338 11.338-1e-6 6.2816 5.0563 11.338 11.338 11.338h7.5605c6.2816 0 11.338-5.0563 11.338-11.338 0-6.2816-5.0563-11.338-11.338-11.338zm149.39 22.676h22.678c6.2816 0 11.338 5.0583 11.338 11.34 0 6.2816-5.0563 11.338-11.338 11.338h-22.678c-6.2816 0-11.338-5.0563-11.338-11.338 0-6.2816 5.0563-11.34 11.338-11.34zm-135.08 22.678c-6.2816 0-11.34 5.0563-11.34 11.338 0 6.2816 5.0583 11.34 11.34 11.34h55.203c6.2816 0 11.338-5.0583 11.338-11.34 0-6.2816-5.0563-11.338-11.338-11.338z" fill="#fff"/>
		</g>
	</g>
</svg>
